<svg xmlns="http://www.w3.org/2000/svg" width="24" height="25" viewBox="0 0 24 25" fill="none">
  <path d="M6 4.31641H18C20.2091 4.31641 22 6.10727 22 8.31641V13.3164C22 15.5255 20.2091 17.3164 18 17.3164H10C7.79086 17.3164 6 15.5255 6 13.3164V4.31641ZM6 4.31641C6 3.21184 5.10457 2.31641 4 2.31641H2" stroke="white" stroke-width="1.5" stroke-linecap="round" stroke-linejoin="round"/>
  <path d="M11 20.8164C11 21.6448 10.3284 22.3164 9.5 22.3164C8.67157 22.3164 8 21.6448 8 20.8164C8 19.988 8.67157 19.3164 9.5 19.3164C10.3284 19.3164 11 19.988 11 20.8164Z" stroke="white" stroke-width="1.5"/>
  <path d="M20 20.8164C20 21.6448 19.3284 22.3164 18.5 22.3164C17.6716 22.3164 17 21.6448 17 20.8164C17 19.988 17.6716 19.3164 18.5 19.3164C19.3284 19.3164 20 19.988 20 20.8164Z" stroke="white" stroke-width="1.5"/>
  <path d="M11 12.3164C13.3561 13.6568 14.6476 13.6427 17 12.3164" stroke="white" stroke-width="1.5" stroke-linecap="round" stroke-linejoin="round"/>
</svg>