<svg xmlns="http://www.w3.org/2000/svg" width="100" height="101" viewBox="0 0 100 101" fill="none">
  <path d="M58.333 79.9987V29.9987M58.333 79.9987H66.6663M58.333 79.9987H37.4997M58.333 29.9987C58.333 20.794 50.8711 13.332 41.6663 13.332H24.9997C15.7949 13.332 8.33301 20.794 8.33301 29.9987V63.332C8.33301 71.1038 13.6525 77.6331 20.849 79.4777M58.333 29.9987H71.7043C73.8214 29.9987 75.8592 30.8045 77.4038 32.2526L89.0325 43.1545C90.7129 44.7299 91.6663 46.9306 91.6663 49.234V71.6654C91.6663 76.2677 87.9354 79.9987 83.333 79.9987M83.333 79.9987C83.333 84.6011 79.602 88.332 74.9997 88.332C70.3973 88.332 66.6663 84.6011 66.6663 79.9987M83.333 79.9987C83.333 75.3963 79.602 71.6654 74.9997 71.6654C70.3973 71.6654 66.6663 75.3963 66.6663 79.9987M37.4997 79.9987C37.4997 84.6011 33.7687 88.332 29.1663 88.332C24.564 88.332 20.833 84.6011 20.833 79.9987C20.833 79.8237 20.8384 79.65 20.849 79.4777M37.4997 79.9987C37.4997 75.3963 33.7687 71.6654 29.1663 71.6654C24.7389 71.6654 21.1179 75.118 20.849 79.4777" stroke="white" stroke-width="6"/>
  <path d="M41.6663 34.1655H33.333" stroke="white" stroke-width="6" stroke-linecap="round" stroke-linejoin="round"/>
  <path d="M41.6667 50.832H25" stroke="white" stroke-width="6" stroke-linecap="round" stroke-linejoin="round"/>
</svg>