<svg xmlns="http://www.w3.org/2000/svg" width="121" height="120" viewBox="0 0 121 120" fill="none">
  <path d="M35.5 85.3113C41.0228 85.3113 45.5 89.7884 45.5 95.3113C45.4998 100.834 41.0227 105.311 35.5 105.311C29.9773 105.311 25.5002 100.834 25.5 95.3113C25.5 95.1013 25.5068 94.8921 25.5195 94.6853C25.8425 89.4539 30.1873 85.3113 35.5 85.3113ZM90.5 85.3113C96.0229 85.3113 100.5 89.7884 100.5 95.3113C100.5 100.834 96.0227 105.311 90.5 105.311C84.9773 105.311 80.5002 100.834 80.5 95.3113C80.5 89.7884 84.9771 85.3113 90.5 85.3113ZM48 15.3113C59.0457 15.3113 68 24.2656 68 35.3113V95.3113H53C53 85.6463 45.165 77.8113 35.5 77.8113C27.2192 77.8113 20.2854 83.5592 18.4658 91.2869C13.6275 87.6366 10.5001 81.8391 10.5 75.3113V35.3113C10.5 24.2656 19.4543 15.3113 30.5 15.3113H48ZM86.5459 35.3113C89.0863 35.3114 91.5314 36.2779 93.3848 38.0154L107.34 51.0974C109.356 52.9879 110.5 55.6292 110.5 58.3933V85.3113C110.5 87.9917 109.445 90.426 107.729 92.2214C106.269 84.03 99.1108 77.8113 90.5 77.8113C84.1342 77.8113 78.5623 81.2098 75.5 86.2917V35.3113H86.5459ZM40.5 35.0613C38.9812 35.0613 37.75 36.2925 37.75 37.8113V55.3113C37.7502 56.8299 38.9813 58.0613 40.5 58.0613H53C54.5187 58.0613 55.7498 56.8299 55.75 55.3113C55.75 53.7925 54.5188 52.5613 53 52.5613H43.25V37.8113C43.25 36.2925 42.0188 35.0613 40.5 35.0613Z" fill="#161616"/>
</svg>