<svg xmlns="http://www.w3.org/2000/svg" width="34" height="31" viewBox="0 0 34 31" fill="none">
  <path fill-rule="evenodd" clip-rule="evenodd" d="M25.2343 0.5C27.4693 0.5 29.6193 1.38333 31.2009 2.96833C32.7843 4.55 33.6693 6.68333 33.6693 8.91667V22.0833C33.6693 26.7333 29.8859 30.5 25.2343 30.5H8.76927C4.1176 30.5 0.335938 26.7333 0.335938 22.0833V8.91667C0.335938 4.26667 4.10094 0.5 8.76927 0.5H25.2343ZM27.8878 11.3992L28.0211 11.2659C28.4194 10.7826 28.4194 10.0826 28.0028 9.59925C27.7711 9.35091 27.4528 9.19925 27.1211 9.16591C26.7711 9.14758 26.4378 9.26591 26.1861 9.49925L18.6711 15.4992C17.7044 16.3009 16.3194 16.3009 15.3378 15.4992L7.83777 9.49925C7.31944 9.11591 6.60277 9.16591 6.17111 9.61591C5.72111 10.0659 5.67111 10.7826 6.05277 11.2826L6.27111 11.4992L13.8544 17.4159C14.7878 18.1492 15.9194 18.5492 17.1044 18.5492C18.2861 18.5492 19.4378 18.1492 20.3694 17.4159L27.8878 11.3992Z" fill="#CFA54B"/>
</svg>