<svg xmlns="http://www.w3.org/2000/svg" width="34" height="35" viewBox="0 0 34 35" fill="none">
  <path d="M27.2728 21.4679C26.1533 21.2271 25.2677 21.7469 24.4835 22.2008C23.6804 22.6686 22.1534 23.9074 21.2781 23.5903C16.7966 21.7452 12.5817 17.8227 10.7571 13.3232C10.4355 12.4292 11.6685 10.8925 12.1328 10.0799C12.5834 9.29332 13.0924 8.39932 12.8603 7.27143C12.6505 6.25789 9.93682 2.80492 8.97724 1.86068C8.34441 1.23696 7.69609 0.893914 7.03058 0.838472C4.52845 0.731054 1.73399 4.06968 1.24388 4.86838C0.0160333 6.57148 0.022912 8.83766 1.26452 11.5855C4.25674 18.9661 15.5739 30.1047 22.9823 33.2094C24.3494 33.8487 25.5996 34.1693 26.7225 34.1693C27.8214 34.1693 28.7999 33.8626 29.6408 33.2545C30.2754 32.8889 33.7508 29.9557 33.6597 27.3863C33.6047 26.7314 33.2625 26.0765 32.6468 25.4424C31.7096 24.4739 28.2788 21.6793 27.2728 21.4679Z" fill="#CFA54B"/>
</svg>