<svg xmlns="http://www.w3.org/2000/svg" width="101" height="100" viewBox="0 0 101 100" fill="none">
  <path d="M90.5 78.7643C90.4999 79.5216 90.0719 80.2146 89.3945 80.5533L51.3945 99.5533C50.8316 99.8348 50.1684 99.8347 49.6055 99.5533L11.6055 80.5533C10.928 80.2146 10.5001 79.5217 10.5 78.7643V48.3854L37.1455 61.7086C40.5285 63.3998 44.6422 62.3077 46.7402 59.1608L50.5 53.5211L54.2598 59.1608C56.358 62.3076 60.4715 63.4001 63.8545 61.7086L90.5 48.3854V78.7643ZM50.3779 40.0787L90.4541 20.2477L100.585 35.1891L60.4883 55.0133L50.3779 40.0787L40.6553 55.0133L0.643555 34.901L10.5781 20.1168L50.3779 40.0787ZM49.6055 0.446899C50.1685 0.165544 50.8316 0.165429 51.3945 0.446899L82.1143 15.8063L50.5 31.6149L18.8848 15.8073L49.6055 0.446899Z" fill="#161616"/>
</svg>