<svg xmlns="http://www.w3.org/2000/svg" width="121" height="120" viewBox="0 0 121 120" fill="none">
  <path fill-rule="evenodd" clip-rule="evenodd" d="M27.1624 23.5535L52.354 11.821C57.5672 9.39301 63.5179 9.39301 68.7311 11.821L93.8228 23.5069C101.16 26.9242 105.977 34.6048 105.462 43.0016C103.49 75.2097 94.7032 89.7697 70.9494 106.661C64.6806 111.119 56.4113 111.108 50.1379 106.658C26.457 89.8574 17.3436 75.5004 15.5308 42.8886C15.0672 34.5469 19.8757 26.9471 27.1624 23.5535ZM78.322 52.4694C79.6858 50.9108 79.5279 48.5417 77.9692 47.1779C76.4106 45.8141 74.0415 45.972 72.6777 47.5307L58.3281 63.9301C57.8876 64.4335 57.1289 64.501 56.6065 64.0831L47.8424 57.0718C46.2252 55.778 43.8654 56.0402 42.5716 57.6574C41.2778 59.2747 41.54 61.6345 43.1572 62.9283L51.9213 69.9396C55.5778 72.8647 60.889 72.3929 63.9725 68.8689L78.322 52.4694Z" fill="#161616"/>
</svg>