<svg xmlns="http://www.w3.org/2000/svg" width="100" height="101" viewBox="0 0 100 101" fill="none">
  <path d="M49.999 2.36133C61.5131 2.36133 72.3438 6.84805 80.4922 14.998C88.2046 22.6723 92.7024 32.9959 93.0742 43.8682C96.6175 45.4695 99.0947 49.0313 99.0947 53.166V64.5127C99.092 66.4806 98.5202 68.4056 97.4492 70.0566C96.39 71.6894 94.8863 72.9842 93.1162 73.791V79.2324C93.1162 87.1313 86.6905 93.5575 78.79 93.5576H71.7998C70.7755 96.3575 68.0969 98.3066 65.0586 98.3066H57.7773C56.8323 98.309 55.8963 98.123 55.0234 97.7607C54.1505 97.3984 53.358 96.8663 52.6924 96.1953C51.3347 94.8438 50.585 93.0373 50.585 91.1143C50.5867 89.74 50.9815 88.3945 51.7227 87.2373C52.4637 86.0803 53.5203 85.1594 54.7676 84.583L55.1211 84.4297C55.9549 84.0956 56.8501 83.9238 57.7773 83.9238H65.0586L65.3369 83.9277C66.7277 83.978 68.0759 84.4346 69.2129 85.2441C70.406 86.0936 71.3061 87.2906 71.7949 88.6699H78.79C81.2923 88.6674 83.6914 87.6726 85.4609 85.9033C87.2305 84.134 88.2256 81.7348 88.2285 79.2324V74.6514C84.8812 74.3154 82.251 71.5169 82.251 68.0811V49.5996C82.2512 46.1977 84.8324 43.4195 88.1338 43.0391C87.5294 33.6823 83.6517 25.0687 77.0381 18.4551C69.8115 11.2285 60.21 7.24805 49.999 7.24805C29.7389 7.24815 13.1194 23.0916 11.8574 43.0371C15.1624 43.414 17.7488 46.1943 17.749 49.5996V68.083C17.7469 69.8431 17.0473 71.5308 15.8027 72.7754C14.5582 74.02 12.8704 74.7196 11.1104 74.7217C8.40446 74.7188 5.80986 73.6428 3.89648 71.7295C1.98309 69.8161 0.907221 67.2216 0.904297 64.5156V53.1689C0.906823 51.1931 1.48183 49.2599 2.56055 47.6045C3.6281 45.9663 5.14362 44.6696 6.92578 43.8672C7.77675 20.8379 26.7643 2.36143 49.999 2.36133ZM57.5488 88.8262C57.0217 88.8793 56.5265 89.1125 56.1484 89.4902C55.7165 89.9218 55.4724 90.5066 55.4707 91.1172C55.4699 91.419 55.5289 91.7183 55.6445 91.9971C55.7601 92.2758 55.9304 92.5286 56.1445 92.7412V92.7422C56.5853 93.1829 57.1617 93.4218 57.7754 93.4219H65.0566C65.5843 93.4202 66.0957 93.2382 66.5059 92.9062C66.9161 92.5742 67.2009 92.1115 67.3125 91.5957C67.3438 91.4464 67.3618 91.2821 67.3604 91.1182V91.1172C67.3604 90.5032 67.1206 89.9259 66.6865 89.4932V89.4922C66.2475 89.0516 65.6707 88.8145 65.0566 88.8145H57.7764L57.5488 88.8262ZM11.1084 47.8486C9.69836 47.8503 8.34667 48.4111 7.34961 49.4082C6.35255 50.4053 5.79174 51.757 5.79004 53.167V64.5137C5.79166 65.9238 6.35248 67.2763 7.34961 68.2734C8.34665 69.2704 9.69845 69.8313 11.1084 69.833C12.075 69.833 12.8604 69.0462 12.8604 68.0811V49.5996C12.8601 48.6346 12.0749 47.8486 11.1084 47.8486ZM88.8877 47.8486C87.9215 47.8489 87.1369 48.6348 87.1367 49.5996V68.0811C87.1371 68.5455 87.322 68.9909 87.6504 69.3193C87.9786 69.6475 88.4235 69.8315 88.8877 69.832C90.2978 69.8304 91.6503 69.2705 92.6475 68.2734C93.6446 67.2763 94.2054 65.9238 94.207 64.5137V53.167C94.2053 51.757 93.6445 50.4052 92.6475 49.4082C91.6503 48.4111 90.2979 47.8503 88.8877 47.8486Z" fill="white" stroke="white" stroke-width="0.2"/>
  <path d="M65.1748 25.127C67.8499 25.127 70.3678 26.1715 72.2646 28.0684C74.1614 29.9652 75.2061 32.4848 75.2061 35.1582V55.3936C75.2031 58.0531 74.1452 60.6028 72.2646 62.4834C70.3841 64.364 67.8343 65.4219 65.1748 65.4248H52.0664L43.3721 74.0723C42.9176 74.5407 42.3737 74.9131 41.7725 75.167C41.2457 75.3894 40.6841 75.5165 40.1143 75.5439L39.8701 75.5498C39.2167 75.5504 38.5694 75.4222 37.9658 75.1719C37.3623 74.9215 36.8147 74.5537 36.3535 74.0908C35.8923 73.6278 35.5264 73.0782 35.2783 72.4736C35.0304 71.8692 34.9051 71.2216 34.9082 70.5684V65.4248H34.8213C32.1619 65.4218 29.6119 64.3639 27.7314 62.4834C25.8511 60.6029 24.7939 58.0529 24.791 55.3936V35.1572C24.7941 32.4979 25.851 29.9478 27.7314 28.0674C29.6119 26.1869 32.1619 25.13 34.8213 25.127H65.1748ZM34.8232 30.0137C33.4597 30.0154 32.1527 30.5583 31.1885 31.5225C30.2242 32.4868 29.6813 33.7945 29.6797 35.1582V55.3936C29.6813 56.7573 30.2242 58.065 31.1885 59.0293C32.1527 59.9934 33.4598 60.5354 34.8232 60.5371H37.3535C38.0014 60.5372 38.6229 60.7949 39.0811 61.2529C39.5393 61.7112 39.7969 62.3333 39.7969 62.9814V70.5684C39.7969 70.6028 39.798 70.6154 39.8018 70.624L39.8428 70.6523L39.8447 70.6533C39.8577 70.659 39.8659 70.6613 39.8701 70.6621L39.8721 70.6611C39.8775 70.6565 39.884 70.6506 39.8955 70.6387L39.8965 70.6367L49.3369 61.248C49.7946 60.7936 50.4139 60.5372 51.0605 60.5371H65.1768C66.5402 60.5354 67.8473 59.9934 68.8115 59.0293C69.7758 58.065 70.3187 56.7573 70.3203 55.3936V35.1582C70.3203 33.875 69.8505 32.6602 68.9883 31.71L68.8105 31.5234C67.8355 30.55 66.5467 30.0137 65.1768 30.0137H34.8232Z" fill="white" stroke="white" stroke-width="0.2"/>
  <path d="M38.6143 42.0879C40.5787 42.088 42.1748 43.6856 42.1748 45.6455C42.1747 47.6053 40.5771 49.203 38.6143 49.2031C36.6544 49.2031 35.0567 47.6053 35.0566 45.6455C35.0566 43.6856 36.6528 42.0879 38.6143 42.0879ZM49.998 42.0879C51.9626 42.0879 53.5596 43.6856 53.5596 45.6455C53.5595 47.6054 51.9626 49.2031 49.998 49.2031C48.0384 49.2029 46.4405 47.6052 46.4404 45.6455C46.4404 43.6858 48.0367 42.0881 49.998 42.0879ZM61.3828 42.0879C63.3458 42.0879 64.9434 43.6855 64.9434 45.6455C64.9433 47.6054 63.3457 49.2031 61.3828 49.2031C59.423 49.2031 57.8253 47.6053 57.8252 45.6455C57.8252 43.6856 59.4213 42.0879 61.3828 42.0879Z" fill="white" stroke="white" stroke-width="0.2"/>
</svg>